#!OML:ASF C:\Vicon Data\Big\jianyuan-13\jianyuan\Session 1\Capture.male.ASF
:FULLY-SPECIFIED
:DEGREES
28
root -7.848010 17.608955 -23.128960 8.795839 7.324395 1.155937
lowerback -13.182434 0.491623 -1.055430 
upperback 1.985420 0.802519 0.310378 
thorax 9.540815 0.317909 1.100331 
lowerneck -1.558732 -2.950755 2.875633 
upperneck 17.320489 -3.815216 -2.649324 
head 5.354892 -1.852709 -1.494563 
rclavicle 0.000000 0.000000 
rhumerus -38.412409 -17.659060 -77.113946 
rradius 37.862284 
rwrist 24.101615 
rhand -18.611397 -18.333094 
rfingers 0.000000 
rthumb 7.680224 -48.173669 
lclavicle 0.000000 0.000000 
lhumerus -39.393261 29.664697 73.099234 
lradius 28.902218 
lwrist -49.645551 
lhand -19.362245 1.930566 
lfingers 0.000000 
lthumb 6.955512 31.796265 
rfemur -35.363374 5.006385 17.559832 
rtibia 32.426165 
rfoot -7.872817 -5.564129 
rtoes -32.180012 
lfemur 2.022973 -2.027314 -25.140944 
ltibia 24.109059 
lfoot -20.113867 2.031154 
ltoes -41.919179 
29
root -7.865578 17.617746 -23.015235 8.860835 6.982218 1.212133
lowerback -13.178045 0.580154 -0.984837 
upperback 2.109968 0.910700 0.299526 
thorax 9.673485 0.372378 1.072883 
lowerneck -1.554522 -2.910033 3.231065 
upperneck 16.977938 -3.741086 -2.945468 
head 5.235881 -1.815877 -1.636114 
rclavicle 0.000000 0.000000 
rhumerus -38.157177 -17.744195 -77.256095 
rradius 37.689104 
rwrist 24.151751 
rhand -18.572956 -18.477974 
rfingers 0.000000 
rthumb 7.717341 -48.317143 
lclavicle 0.000000 0.000000 
lhumerus -39.504014 29.842975 72.862192 
lradius 28.860945 
lwrist -49.586158 
lhand -19.428499 1.740086 
lfingers 0.000000 
lthumb 6.891536 31.607902 
rfemur -35.224081 4.344579 17.939043 
rtibia 32.677095 
rfoot -8.049851 -4.551067 
rtoes -32.085599 
lfemur 1.424474 -1.528866 -25.052151 
ltibia 25.764764 
lfoot -19.348567 2.135489 
ltoes -43.035478 
30
root -7.890439 17.632128 -22.897546 8.794563 6.728873 1.282475
lowerback -13.063858 0.518865 -1.010539 
upperback 2.151183 0.821504 0.412500 
thorax 9.652651 0.324511 1.188721 
lowerneck -1.086180 -2.759483 3.036935 
upperneck 16.582448 -3.501861 -3.017451 
head 5.043395 -1.715686 -1.601053 
rclavicle 0.000000 0.000000 
rhumerus -38.038327 -17.458927 -77.240172 
rradius 37.406707 
rwrist 24.594066 
rhand -18.614626 -18.577222 
rfingers 0.000000 
rthumb 7.677161 -48.417844 
lclavicle 0.000000 0.000000 
lhumerus -39.990960 29.989050 72.690827 
lradius 28.894585 
lwrist -49.166263 
lhand -19.256006 1.810180 
lfingers 0.000000 
lthumb 7.058018 31.672522 
rfemur -34.833036 4.653179 18.010572 
rtibia 32.893952 
rfoot -8.597738 -4.559999 
rtoes -31.768058 
lfemur 0.870215 -0.889754 -24.863074 
ltibia 27.612928 
lfoot -18.343469 1.915004 
ltoes -43.569708 
31
root -7.908548 17.641917 -22.781717 8.774350 6.622125 1.346526
lowerback -13.001467 0.499154 -0.921598 
upperback 2.188134 0.778360 0.430435 
thorax 9.658928 0.307998 1.148063 
lowerneck -0.857686 -2.687216 3.161855 
upperneck 16.429640 -3.377919 -3.213051 
head 4.954905 -1.659236 -1.670705 
rclavicle 0.000000 0.000000 
rhumerus -37.964741 -17.547254 -77.272932 
rradius 37.219173 
rwrist 24.708962 
rhand -18.474017 -18.408524 
rfingers 0.000000 
rthumb 7.812797 -48.244093 
lclavicle 0.000000 0.000000 
lhumerus -40.275016 29.942779 72.539577 
lradius 28.893817 
lwrist -48.591963 
lhand -19.175772 1.839088 
lfingers 0.000000 
lthumb 7.135479 31.698827 
rfemur -34.506867 4.042813 18.321701 
rtibia 33.084675 
rfoot -8.920630 -3.837069 
rtoes -31.506299 
lfemur 0.102792 -0.431400 -24.695998 
ltibia 29.703888 
lfoot -17.322922 1.829212 
ltoes -43.916093 
32
root -7.928026 17.653549 -22.668339 8.847293 6.509677 1.387305
lowerback -12.997728 0.477493 -0.830329 
upperback 2.153562 0.730319 0.471730 
thorax 9.620511 0.289145 1.130313 
lowerneck -0.671980 -2.594796 3.126117 
upperneck 16.409457 -3.229674 -3.323996 
head 4.920359 -1.594622 -1.689740 
rclavicle 0.000000 0.000000 
rhumerus -37.969412 -17.335152 -77.407293 
rradius 37.099967 
rwrist 24.624060 
rhand -18.648448 -18.518845 
rfingers 0.000000 
rthumb 7.644440 -48.360711 
lclavicle 0.000000 0.000000 
lhumerus -40.624390 29.932291 72.264468 
lradius 28.772023 
lwrist -48.792881 
lhand -19.023392 1.870071 
lfingers 0.000000 
lthumb 7.282574 31.724784 
rfemur -34.218383 4.089003 18.449522 
rtibia 33.182575 
rfoot -9.334733 -3.727399 
rtoes -31.386861 
lfemur -0.971720 0.326757 -24.409590 
ltibia 32.074372 
lfoot -16.119843 1.624287 
ltoes -43.846623 
33
root -7.954746 17.658589 -22.556583 8.979840 6.443425 1.384501
lowerback -13.090655 0.499356 -0.764570 
upperback 2.113187 0.745984 0.505578 
thorax 9.630142 0.299256 1.133716 
lowerneck -0.584338 -2.564709 3.178779 
upperneck 16.471384 -3.166832 -3.475995 
head 4.922591 -1.568952 -1.742537 
rclavicle 0.000000 0.000000 
rhumerus -38.161948 -17.263695 -77.421983 
rradius 37.184555 
rwrist 24.502050 
rhand -18.756987 -18.502095 
rfingers 0.000000 
rthumb 7.539701 -48.347699 
lclavicle 0.000000 0.000000 
lhumerus -40.879736 29.982047 71.994048 
lradius 28.568048 
lwrist -49.257766 
lhand -18.991618 1.744256 
lfingers 0.000000 
lthumb 7.313256 31.597888 
rfemur -33.989545 3.948786 18.702168 
rtibia 33.243671 
rfoot -9.705100 -3.456011 
rtoes -31.241651 
lfemur -2.285060 1.294362 -23.994215 
ltibia 34.692780 
lfoot -14.610896 1.326627 
ltoes -44.579830 
34
root -7.978441 17.668529 -22.446036 8.992038 6.466429 1.390780
lowerback -13.006993 0.475913 -0.641811 
upperback 2.062195 0.691659 0.529253 
thorax 9.527930 0.280214 1.076539 
lowerneck -0.464143 -2.506900 3.169120 
upperneck 16.568095 -3.070787 -3.564057 
head 4.933716 -1.526712 -1.764012 
rclavicle 0.000000 0.000000 
rhumerus -38.333859 -17.415207 -77.444146 
rradius 37.188410 
rwrist 24.473522 
rhand -18.724170 -18.452599 
rfingers 0.000000 
rthumb 7.571423 -48.297022 
lclavicle 0.000000 0.000000 
lhumerus -41.204544 30.032171 71.656251 
lradius 28.428942 
lwrist -49.619300 
lhand -18.476335 1.471422 
lfingers 0.000000 
lthumb 7.810621 31.307110 
rfemur -33.575000 4.321070 18.769122 
rtibia 33.271868 
rfoot -10.219837 -3.769079 
rtoes -31.107961 
lfemur -3.634133 2.305731 -23.562327 
ltibia 37.493875 
lfoot -12.864518 1.212684 
ltoes -45.818129 
35
root -8.004036 17.674174 -22.340037 8.960293 6.445055 1.282807
lowerback -12.906154 0.535180 -0.414088 
upperback 2.055394 0.730201 0.561658 
thorax 9.463382 0.310695 0.989083 
lowerneck -0.472425 -2.518895 3.228103 
upperneck 16.687134 -3.075384 -3.657418 
head 4.968719 -1.530529 -1.804911 
rclavicle 0.000000 0.000000 
rhumerus -38.478696 -17.399128 -77.535697 
rradius 37.217815 
rwrist 24.541044 
rhand -18.736695 -18.457383 
rfingers 0.000000 
rthumb 7.559333 -48.302331 
lclavicle 0.000000 0.000000 
lhumerus -41.436219 30.284011 71.223795 
lradius 28.184679 
lwrist -50.586337 
lhand -18.781926 1.678726 
lfingers 0.000000 
lthumb 7.515661 31.525221 
rfemur -33.204013 3.876617 19.217300 
rtibia 33.355922 
rfoot -10.554259 -3.189109 
rtoes -30.937146 
lfemur -5.134708 3.322694 -22.975135 
ltibia 40.559531 
lfoot -10.961149 1.069892 
ltoes -45.903959 
36
root -8.031712 17.679894 -22.243558 8.948686 6.576795 1.179827
lowerback -12.721141 0.520588 -0.240638 
upperback 2.009682 0.676801 0.625131 
thorax 9.308238 0.293536 0.944906 
lowerneck -0.432467 -2.478483 3.147044 
upperneck 16.782244 -3.016359 -3.636880 
head 4.995121 -1.504614 -1.783633 
rclavicle 0.000000 0.000000 
rhumerus -38.675579 -17.287876 -77.628876 
rradius 37.318968 
rwrist 24.314428 
rhand -18.779953 -18.562217 
rfingers 0.000000 
rthumb 7.517557 -48.408591 
lclavicle 0.000000 0.000000 
lhumerus -41.728045 30.490550 70.796853 
lradius 28.053610 
lwrist -51.066350 
lhand -18.357371 1.337261 
lfingers 0.000000 
lthumb 7.925417 31.168674 
rfemur -32.836122 4.143280 19.422540 
rtibia 33.425662 
rfoot -11.048254 -3.409321 
rtoes -30.392537 
lfemur -6.894967 4.251638 -22.337064 
ltibia 43.872966 
lfoot -8.930193 0.864638 
ltoes -46.711473 
